<mxfile host="app.diagrams.net" agent="Mozilla/5.0 (Windows NT 10.0; Win64; x64) AppleWebKit/537.36 (KHTML, like Gecko) Chrome/129.0.0.0 Safari/537.36" version="24.7.17">
  <diagram name="PÃ¡gina-1" id="SMdB4XbGiTvNXUKPNGg-">
    <mxGraphModel dx="1294" dy="615" grid="1" gridSize="10" guides="1" tooltips="1" connect="1" arrows="1" fold="1" page="1" pageScale="1" pageWidth="827" pageHeight="1169" math="0" shadow="0">
      <root>
        <mxCell id="0" />
        <mxCell id="1" parent="0" />
        <mxCell id="McJQnCoaoeELeILOpKaS-63" style="edgeStyle=orthogonalEdgeStyle;rounded=0;orthogonalLoop=1;jettySize=auto;html=1;exitX=1;exitY=0.75;exitDx=0;exitDy=0;entryX=0;entryY=0.75;entryDx=0;entryDy=0;" edge="1" parent="1" source="McJQnCoaoeELeILOpKaS-8" target="McJQnCoaoeELeILOpKaS-20">
          <mxGeometry relative="1" as="geometry" />
        </mxCell>
        <mxCell id="McJQnCoaoeELeILOpKaS-8" value="Cliente" style="rounded=1;arcSize=10;whiteSpace=wrap;html=1;align=center;" vertex="1" parent="1">
          <mxGeometry x="210" y="320" width="100" height="40" as="geometry" />
        </mxCell>
        <mxCell id="McJQnCoaoeELeILOpKaS-9" value="Movimiento_stock" style="rounded=1;arcSize=10;whiteSpace=wrap;html=1;align=center;" vertex="1" parent="1">
          <mxGeometry x="100" y="288" width="100" height="40" as="geometry" />
        </mxCell>
        <mxCell id="McJQnCoaoeELeILOpKaS-10" value="Proveedor_Producto" style="rounded=1;arcSize=9;whiteSpace=wrap;html=1;align=center;" vertex="1" parent="1">
          <mxGeometry x="10" y="140" width="120" height="40" as="geometry" />
        </mxCell>
        <mxCell id="McJQnCoaoeELeILOpKaS-36" style="edgeStyle=orthogonalEdgeStyle;rounded=0;orthogonalLoop=1;jettySize=auto;html=1;exitX=1;exitY=0.5;exitDx=0;exitDy=0;entryX=0.5;entryY=0;entryDx=0;entryDy=0;" edge="1" parent="1" source="McJQnCoaoeELeILOpKaS-11" target="McJQnCoaoeELeILOpKaS-9">
          <mxGeometry relative="1" as="geometry" />
        </mxCell>
        <mxCell id="McJQnCoaoeELeILOpKaS-11" value="Tipo_movimiento" style="rounded=1;arcSize=10;whiteSpace=wrap;html=1;align=center;" vertex="1" parent="1">
          <mxGeometry x="20" y="230" width="100" height="40" as="geometry" />
        </mxCell>
        <mxCell id="McJQnCoaoeELeILOpKaS-39" style="edgeStyle=orthogonalEdgeStyle;rounded=0;orthogonalLoop=1;jettySize=auto;html=1;exitX=0.5;exitY=1;exitDx=0;exitDy=0;entryX=0;entryY=0.75;entryDx=0;entryDy=0;" edge="1" parent="1" source="McJQnCoaoeELeILOpKaS-12" target="McJQnCoaoeELeILOpKaS-17">
          <mxGeometry relative="1" as="geometry" />
        </mxCell>
        <mxCell id="McJQnCoaoeELeILOpKaS-12" value="Departamento" style="rounded=1;arcSize=10;whiteSpace=wrap;html=1;align=center;" vertex="1" parent="1">
          <mxGeometry x="370" y="40" width="100" height="40" as="geometry" />
        </mxCell>
        <mxCell id="McJQnCoaoeELeILOpKaS-28" style="edgeStyle=orthogonalEdgeStyle;rounded=0;orthogonalLoop=1;jettySize=auto;html=1;exitX=0.5;exitY=1;exitDx=0;exitDy=0;entryX=0;entryY=0.5;entryDx=0;entryDy=0;" edge="1" parent="1" source="McJQnCoaoeELeILOpKaS-13" target="McJQnCoaoeELeILOpKaS-19">
          <mxGeometry relative="1" as="geometry" />
        </mxCell>
        <mxCell id="McJQnCoaoeELeILOpKaS-13" value="Categoria" style="rounded=1;arcSize=10;whiteSpace=wrap;html=1;align=center;" vertex="1" parent="1">
          <mxGeometry x="150" y="140" width="100" height="40" as="geometry" />
        </mxCell>
        <mxCell id="McJQnCoaoeELeILOpKaS-27" style="edgeStyle=orthogonalEdgeStyle;rounded=0;orthogonalLoop=1;jettySize=auto;html=1;exitX=1;exitY=1;exitDx=0;exitDy=0;" edge="1" parent="1" source="McJQnCoaoeELeILOpKaS-14">
          <mxGeometry relative="1" as="geometry">
            <mxPoint x="110" y="140" as="targetPoint" />
            <Array as="points">
              <mxPoint x="110" y="70" />
              <mxPoint x="110" y="140" />
            </Array>
          </mxGeometry>
        </mxCell>
        <mxCell id="McJQnCoaoeELeILOpKaS-14" value="Proveedor" style="rounded=1;arcSize=10;whiteSpace=wrap;html=1;align=center;" vertex="1" parent="1">
          <mxGeometry x="90" y="30" width="100" height="40" as="geometry" />
        </mxCell>
        <mxCell id="McJQnCoaoeELeILOpKaS-32" style="edgeStyle=orthogonalEdgeStyle;rounded=0;orthogonalLoop=1;jettySize=auto;html=1;exitX=0.5;exitY=1;exitDx=0;exitDy=0;entryX=1;entryY=0.75;entryDx=0;entryDy=0;" edge="1" parent="1" source="McJQnCoaoeELeILOpKaS-15" target="McJQnCoaoeELeILOpKaS-20">
          <mxGeometry relative="1" as="geometry" />
        </mxCell>
        <mxCell id="McJQnCoaoeELeILOpKaS-35" style="edgeStyle=orthogonalEdgeStyle;rounded=0;orthogonalLoop=1;jettySize=auto;html=1;exitX=0;exitY=0.5;exitDx=0;exitDy=0;entryX=0.75;entryY=1;entryDx=0;entryDy=0;" edge="1" parent="1" source="McJQnCoaoeELeILOpKaS-15" target="McJQnCoaoeELeILOpKaS-19">
          <mxGeometry relative="1" as="geometry" />
        </mxCell>
        <mxCell id="McJQnCoaoeELeILOpKaS-15" value="Ventas" style="rounded=1;arcSize=10;whiteSpace=wrap;html=1;align=center;" vertex="1" parent="1">
          <mxGeometry x="520" y="240" width="100" height="40" as="geometry" />
        </mxCell>
        <mxCell id="McJQnCoaoeELeILOpKaS-16" value="Promocion" style="rounded=1;arcSize=10;whiteSpace=wrap;html=1;align=center;" vertex="1" parent="1">
          <mxGeometry x="640" y="190" width="100" height="40" as="geometry" />
        </mxCell>
        <mxCell id="McJQnCoaoeELeILOpKaS-17" value="Empleado" style="rounded=1;arcSize=10;whiteSpace=wrap;html=1;align=center;" vertex="1" parent="1">
          <mxGeometry x="660" y="90" width="100" height="40" as="geometry" />
        </mxCell>
        <mxCell id="McJQnCoaoeELeILOpKaS-33" style="edgeStyle=orthogonalEdgeStyle;rounded=0;orthogonalLoop=1;jettySize=auto;html=1;exitX=0.5;exitY=1;exitDx=0;exitDy=0;entryX=0.5;entryY=0;entryDx=0;entryDy=0;" edge="1" parent="1" source="McJQnCoaoeELeILOpKaS-18" target="McJQnCoaoeELeILOpKaS-16">
          <mxGeometry relative="1" as="geometry">
            <mxPoint x="690" y="170" as="targetPoint" />
            <Array as="points">
              <mxPoint x="590" y="170" />
              <mxPoint x="690" y="170" />
            </Array>
          </mxGeometry>
        </mxCell>
        <mxCell id="McJQnCoaoeELeILOpKaS-18" value="Descuento" style="rounded=1;arcSize=10;whiteSpace=wrap;html=1;align=center;" vertex="1" parent="1">
          <mxGeometry x="540" y="40" width="100" height="40" as="geometry" />
        </mxCell>
        <mxCell id="McJQnCoaoeELeILOpKaS-31" style="edgeStyle=orthogonalEdgeStyle;rounded=0;orthogonalLoop=1;jettySize=auto;html=1;exitX=1;exitY=0.5;exitDx=0;exitDy=0;entryX=0.5;entryY=0;entryDx=0;entryDy=0;" edge="1" parent="1" source="McJQnCoaoeELeILOpKaS-19" target="McJQnCoaoeELeILOpKaS-15">
          <mxGeometry relative="1" as="geometry" />
        </mxCell>
        <mxCell id="McJQnCoaoeELeILOpKaS-19" value="Producto" style="rounded=1;arcSize=10;whiteSpace=wrap;html=1;align=center;" vertex="1" parent="1">
          <mxGeometry x="314" y="190" width="100" height="30" as="geometry" />
        </mxCell>
        <mxCell id="McJQnCoaoeELeILOpKaS-20" value="Factura" style="rounded=1;arcSize=10;whiteSpace=wrap;html=1;align=center;" vertex="1" parent="1">
          <mxGeometry x="400" y="320" width="100" height="40" as="geometry" />
        </mxCell>
        <mxCell id="McJQnCoaoeELeILOpKaS-26" style="edgeStyle=orthogonalEdgeStyle;rounded=0;orthogonalLoop=1;jettySize=auto;html=1;exitX=0.5;exitY=1;exitDx=0;exitDy=0;entryX=0.58;entryY=-0.144;entryDx=0;entryDy=0;entryPerimeter=0;" edge="1" parent="1" source="McJQnCoaoeELeILOpKaS-14" target="McJQnCoaoeELeILOpKaS-19">
          <mxGeometry relative="1" as="geometry">
            <Array as="points">
              <mxPoint x="160" y="70" />
              <mxPoint x="160" y="130" />
              <mxPoint x="372" y="130" />
            </Array>
          </mxGeometry>
        </mxCell>
        <mxCell id="McJQnCoaoeELeILOpKaS-29" style="edgeStyle=orthogonalEdgeStyle;rounded=0;orthogonalLoop=1;jettySize=auto;html=1;exitX=0.5;exitY=1;exitDx=0;exitDy=0;entryX=0.873;entryY=0.075;entryDx=0;entryDy=0;entryPerimeter=0;" edge="1" parent="1" source="McJQnCoaoeELeILOpKaS-19" target="McJQnCoaoeELeILOpKaS-9">
          <mxGeometry relative="1" as="geometry" />
        </mxCell>
        <mxCell id="McJQnCoaoeELeILOpKaS-52" value="0" style="edgeLabel;html=1;align=center;verticalAlign=middle;resizable=0;points=[];" vertex="1" connectable="0" parent="McJQnCoaoeELeILOpKaS-29">
          <mxGeometry x="0.817" y="7" relative="1" as="geometry">
            <mxPoint as="offset" />
          </mxGeometry>
        </mxCell>
        <mxCell id="McJQnCoaoeELeILOpKaS-40" value="1" style="text;html=1;align=center;verticalAlign=middle;resizable=0;points=[];autosize=1;strokeColor=none;fillColor=none;" vertex="1" parent="1">
          <mxGeometry x="420" y="80" width="30" height="30" as="geometry" />
        </mxCell>
        <mxCell id="McJQnCoaoeELeILOpKaS-42" value="0" style="text;html=1;align=center;verticalAlign=middle;resizable=0;points=[];autosize=1;strokeColor=none;fillColor=none;" vertex="1" parent="1">
          <mxGeometry x="635" y="90" width="30" height="30" as="geometry" />
        </mxCell>
        <mxCell id="McJQnCoaoeELeILOpKaS-44" value="0" style="text;html=1;align=center;verticalAlign=middle;resizable=0;points=[];autosize=1;strokeColor=none;fillColor=none;" vertex="1" parent="1">
          <mxGeometry x="370" y="160" width="30" height="30" as="geometry" />
        </mxCell>
        <mxCell id="McJQnCoaoeELeILOpKaS-46" value="1" style="text;html=1;align=center;verticalAlign=middle;resizable=0;points=[];autosize=1;strokeColor=none;fillColor=none;" vertex="1" parent="1">
          <mxGeometry x="160" y="80" width="30" height="30" as="geometry" />
        </mxCell>
        <mxCell id="McJQnCoaoeELeILOpKaS-47" value="1" style="text;html=1;align=center;verticalAlign=middle;resizable=0;points=[];autosize=1;strokeColor=none;fillColor=none;" vertex="1" parent="1">
          <mxGeometry x="75" y="68" width="30" height="30" as="geometry" />
        </mxCell>
        <mxCell id="McJQnCoaoeELeILOpKaS-48" value="0" style="text;html=1;align=center;verticalAlign=middle;resizable=0;points=[];autosize=1;strokeColor=none;fillColor=none;" vertex="1" parent="1">
          <mxGeometry x="75" y="118" width="30" height="30" as="geometry" />
        </mxCell>
        <mxCell id="McJQnCoaoeELeILOpKaS-49" value="1" style="text;html=1;align=center;verticalAlign=middle;resizable=0;points=[];autosize=1;strokeColor=none;fillColor=none;" vertex="1" parent="1">
          <mxGeometry x="165" y="178" width="30" height="30" as="geometry" />
        </mxCell>
        <mxCell id="McJQnCoaoeELeILOpKaS-50" value="0" style="text;html=1;align=center;verticalAlign=middle;resizable=0;points=[];autosize=1;strokeColor=none;fillColor=none;" vertex="1" parent="1">
          <mxGeometry x="285" y="178" width="30" height="30" as="geometry" />
        </mxCell>
        <mxCell id="McJQnCoaoeELeILOpKaS-51" value="1" style="text;html=1;align=center;verticalAlign=middle;resizable=0;points=[];autosize=1;strokeColor=none;fillColor=none;" vertex="1" parent="1">
          <mxGeometry x="335" y="218" width="30" height="30" as="geometry" />
        </mxCell>
        <mxCell id="McJQnCoaoeELeILOpKaS-53" value="0" style="text;html=1;align=center;verticalAlign=middle;resizable=0;points=[];autosize=1;strokeColor=none;fillColor=none;" vertex="1" parent="1">
          <mxGeometry x="125" y="258" width="30" height="30" as="geometry" />
        </mxCell>
        <mxCell id="McJQnCoaoeELeILOpKaS-54" value="1" style="text;html=1;align=center;verticalAlign=middle;resizable=0;points=[];autosize=1;strokeColor=none;fillColor=none;" vertex="1" parent="1">
          <mxGeometry x="115" y="228" width="30" height="30" as="geometry" />
        </mxCell>
        <mxCell id="McJQnCoaoeELeILOpKaS-55" value="1" style="text;html=1;align=center;verticalAlign=middle;resizable=0;points=[];autosize=1;strokeColor=none;fillColor=none;" vertex="1" parent="1">
          <mxGeometry x="415" y="178" width="30" height="30" as="geometry" />
        </mxCell>
        <mxCell id="McJQnCoaoeELeILOpKaS-56" value="0" style="text;html=1;align=center;verticalAlign=middle;resizable=0;points=[];autosize=1;strokeColor=none;fillColor=none;" vertex="1" parent="1">
          <mxGeometry x="565" y="218" width="30" height="30" as="geometry" />
        </mxCell>
        <mxCell id="McJQnCoaoeELeILOpKaS-57" value="1" style="text;html=1;align=center;verticalAlign=middle;resizable=0;points=[];autosize=1;strokeColor=none;fillColor=none;" vertex="1" parent="1">
          <mxGeometry x="565" y="278" width="30" height="30" as="geometry" />
        </mxCell>
        <mxCell id="McJQnCoaoeELeILOpKaS-58" value="0" style="text;html=1;align=center;verticalAlign=middle;resizable=0;points=[];autosize=1;strokeColor=none;fillColor=none;" vertex="1" parent="1">
          <mxGeometry x="500" y="320" width="30" height="30" as="geometry" />
        </mxCell>
        <mxCell id="McJQnCoaoeELeILOpKaS-45" value="1" style="text;html=1;align=center;verticalAlign=middle;resizable=0;points=[];autosize=1;strokeColor=none;fillColor=none;" vertex="1" parent="1">
          <mxGeometry x="305" y="310" width="30" height="30" as="geometry" />
        </mxCell>
        <mxCell id="McJQnCoaoeELeILOpKaS-60" value="0" style="text;html=1;align=center;verticalAlign=middle;resizable=0;points=[];autosize=1;strokeColor=none;fillColor=none;" vertex="1" parent="1">
          <mxGeometry x="370" y="308" width="30" height="30" as="geometry" />
        </mxCell>
        <mxCell id="McJQnCoaoeELeILOpKaS-64" value="1" style="text;html=1;align=center;verticalAlign=middle;resizable=0;points=[];autosize=1;strokeColor=none;fillColor=none;" vertex="1" parent="1">
          <mxGeometry x="565" y="78" width="30" height="30" as="geometry" />
        </mxCell>
        <mxCell id="McJQnCoaoeELeILOpKaS-65" value="0" style="text;html=1;align=center;verticalAlign=middle;resizable=0;points=[];autosize=1;strokeColor=none;fillColor=none;" vertex="1" parent="1">
          <mxGeometry x="685" y="158" width="30" height="30" as="geometry" />
        </mxCell>
      </root>
    </mxGraphModel>
  </diagram>
</mxfile>
